<?xml version="1.0" encoding="UTF-8" standalone="no"?>
<!DOCTYPE svg PUBLIC "-//W3C//DTD SVG 1.1//EN" "http://www.w3.org/Graphics/SVG/1.1/DTD/svg11.dtd">
<svg width="100%" height="100%" viewBox="0 0 128 128" version="1.1" xmlns="http://www.w3.org/2000/svg" xmlns:xlink="http://www.w3.org/1999/xlink" xml:space="preserve" xmlns:serif="http://www.serif.com/" style="fill-rule:evenodd;clip-rule:evenodd;stroke-linejoin:round;stroke-miterlimit:2;">
    <g transform="matrix(0.837942,0,0,0.837942,10.3717,10.3717)">
        <circle cx="64" cy="64" r="64" style="fill:url(#_Linear1);"/>
        <clipPath id="_clip2">
            <circle cx="64" cy="64" r="64"/>
        </clipPath>
        <g clip-path="url(#_clip2)">
            <g transform="matrix(1.1934,0,0,1.1934,-12.3776,-12.3776)">
                <path d="M74.621,13.087L84.443,17.282L93.14,23.012L98.001,28.844L99.638,34.011L99.097,32.305L96.824,31.249L95.136,32.016L94.88,34.42L95.289,37.899L95.289,40.355L96.875,42.913L97.642,40.918L98.973,43.885L101.019,43.629L99.535,40.406L98.921,38.36L98.001,35.034L100.917,39.69L101.838,41.327L101.582,43.936L100.507,44.652L99.075,44.755L97.591,42.81L98.205,45.215L97.54,47.057L96.312,49.922L94.726,51.149L96.363,52.684L96.875,54.884L93.806,55.089L93.345,59.744L95.289,61.074L95.801,62.046L96.773,61.074L98.973,60.87L98.256,56.777L100.2,56.265L99.791,54.526L101.019,55.14L102.196,53.4L104.549,55.498L106.033,56.214L105.828,57.902L106.902,56.214L106.288,54.577L105.112,54.168L104.089,52.94L105.47,52.735L108.284,54.219L108.949,56.623L110.125,58.005L109.409,54.475L109.614,52.991L110.944,55.703L113.451,54.782L114.013,58.977L112.376,60.818L109.921,60.972L109.563,63.846L105.112,63.161L104.651,60.051L98.154,63.161L95.596,63.161L93.959,65.525L92.68,68.646L89.764,71.613L87.82,76.32L87.479,80.303L86.903,83.181L90.804,89.128L99.565,87.913L103.913,87.785L102.123,90.599L102.954,94.564L101.867,97.377L98.094,102.429L97.263,105.435L94.513,107.545L97.007,110.487L119.837,99.68L122.586,61.758L117.628,37.521L108.646,24.028L98.158,15.267L76.479,8.694L74.621,13.087Z" style="fill:rgb(250,250,250);"/>
            </g>
            <g transform="matrix(1.38435,0,0,1.38435,-26.2699,-21.1498)">
                <path d="M56.808,36.661L57.959,37.524L58.439,35.51L61.029,35.414L61.604,32.824L65.249,31.001L67.166,35.989L67.166,43.855L61.7,42.033L60.549,46.157L53.643,46.541L50.573,48.747L45.297,50.474L42.516,54.503L40.981,56.037L42.42,52.201L42.324,49.994L38.391,47.5L36.76,45.678L33.403,48.555L32.54,53.543L33.307,55.654L35.13,54.215L36.664,55.174L34.17,57.764L35.801,61.025L34.458,64L35.13,67.069L37.432,68.987L40.501,69.275L42.516,70.81L45.393,72.248L50.477,78.867L55.753,83.567L54.026,86.349L55.849,87.596L65.729,93.639L65.441,96.901L61.317,99.011L59.398,103.424L52.684,103.232L51.053,104.287L44.722,104.671L42.036,105.726L40.405,107.74L36.473,104.671L35.226,100.642L36.856,92.201L33.979,87.5L31.868,79.059L30.429,76.949L32.348,75.606L32.636,73.591L36.377,72.92L35.993,69.754L33.115,66.205L32.444,60.45L29.95,54.982L28.991,48.076L30.525,43.567L34.458,31.385L45.393,24.191L53.067,18.148L57.096,13.831L65.249,14.023L67.166,17.093L64,20.546L64,26.109L67.166,27.74L64,28.603L59.11,28.316L56.808,30.81L58.247,34.167L58.439,35.51" style="fill:rgb(250,250,250);"/>
            </g>
        </g>
    </g>
    <defs>
        <linearGradient id="_Linear1" x1="0" y1="0" x2="1" y2="0" gradientUnits="userSpaceOnUse" gradientTransform="matrix(128,0,-0,128,0,64)"><stop offset="0" style="stop-color:rgb(113,199,251);stop-opacity:1"/><stop offset="1" style="stop-color:rgb(7,148,233);stop-opacity:1"/></linearGradient>
    </defs>
</svg>
